<?xml version="1.0" encoding="utf-8"?>
<!-- Generator: Adobe Illustrator 21.1.0, SVG Export Plug-In . SVG Version: 6.00 Build 0)  -->
<svg version="1.1" id="Layer_1" xmlns="http://www.w3.org/2000/svg" xmlns:xlink="http://www.w3.org/1999/xlink" x="0px" y="0px"
	 viewBox="0 0 212.6 70.9" style="enable-background:new 0 0 212.6 70.9;" xml:space="preserve">
<style type="text/css">
	.st0{fill:none;stroke:#459EDB;stroke-width:2;stroke-linecap:round;stroke-linejoin:round;stroke-miterlimit:10;}
	.st1{fill:#459EDB;}
</style>
<g id="Calendar">
	<path class="st0" d="M56.3,61.3H2.9c-0.5,0-0.9-0.4-0.9-0.9V15.6c0-0.5,0.4-0.9,0.9-0.9h53.3c0.5,0,0.9,0.4,0.9,0.9v44.8
		C57.2,60.9,56.8,61.3,56.3,61.3z"/>
	<line class="st0" x1="2" y1="22.7" x2="57.2" y2="22.7"/>
	<g>
		<path class="st1" d="M15.1,43c0-0.7,0.1-1.5,0.1-2.4c0.1-0.9,0.2-1.7,0.4-2.5c0.2-0.8,0.4-1.5,0.7-2.3c0.3-0.7,0.7-1.4,1.2-1.9
			c0.5-0.6,1.1-1,1.8-1.3c0.7-0.3,1.5-0.5,2.5-0.5s1.8,0.2,2.5,0.5c0.7,0.3,1.3,0.7,1.8,1.3c0.5,0.6,0.9,1.2,1.2,1.9
			s0.6,1.5,0.7,2.3c0.2,0.8,0.3,1.6,0.4,2.5c0.1,0.9,0.1,1.6,0.1,2.4c0,0.7-0.1,1.5-0.1,2.4c-0.1,0.8-0.2,1.7-0.4,2.4
			c-0.2,0.8-0.4,1.5-0.7,2.3s-0.7,1.4-1.2,1.9c-0.5,0.6-1.1,1-1.8,1.3c-0.7,0.3-1.5,0.5-2.5,0.5s-1.8-0.2-2.5-0.5
			c-0.7-0.3-1.3-0.7-1.8-1.3c-0.5-0.6-0.9-1.2-1.2-1.9s-0.6-1.5-0.7-2.3c-0.2-0.8-0.3-1.6-0.4-2.4C15.1,44.5,15.1,43.7,15.1,43z
			 M17,43c0,0.6,0,1.2,0.1,1.8c0.1,0.7,0.1,1.4,0.2,2c0.1,0.7,0.3,1.4,0.5,2c0.2,0.6,0.5,1.2,0.9,1.7c0.4,0.5,0.8,0.9,1.3,1.2
			c0.6,0.3,1.2,0.4,1.9,0.4c0.7,0,1.3-0.1,1.9-0.4c0.6-0.3,1-0.7,1.3-1.2c0.4-0.5,0.7-1,0.9-1.7c0.2-0.7,0.4-1.3,0.5-2
			s0.2-1.4,0.2-2c0.1-0.7,0.1-1.2,0.1-1.8s0-1.1-0.1-1.8c-0.1-0.7-0.1-1.4-0.2-2c-0.1-0.7-0.3-1.4-0.5-2c-0.2-0.7-0.5-1.2-0.9-1.7
			c-0.4-0.5-0.8-0.9-1.3-1.2c-0.6-0.3-1.2-0.4-1.9-0.4c-0.7,0-1.3,0.1-1.9,0.4c-0.6,0.3-1,0.7-1.3,1.2c-0.4,0.6-0.7,1-0.9,1.7
			c-0.2,0.7-0.4,1.3-0.5,2c-0.1,0.7-0.2,1.4-0.2,2C17.1,41.9,17,42.4,17,43z"/>
		<path class="st1" d="M31.6,37.6c0-0.8,0.1-1.5,0.4-2.2c0.3-0.7,0.7-1.2,1.2-1.7c0.5-0.5,1.1-0.9,1.8-1.1c0.7-0.2,1.5-0.4,2.3-0.4
			c0.8,0,1.5,0.1,2.3,0.4c0.7,0.2,1.3,0.6,1.8,1.1c0.5,0.5,0.9,1,1.2,1.7c0.3,0.7,0.4,1.4,0.4,2.2c0,0.5-0.1,1-0.2,1.5
			c-0.2,0.5-0.4,0.9-0.7,1.4c-0.3,0.4-0.6,0.8-1,1.1c-0.4,0.3-0.9,0.6-1.3,0.7l0,0c0.7,0.1,1.2,0.4,1.7,0.7c0.5,0.4,0.9,0.7,1.3,1.2
			s0.6,1,0.8,1.6c0.2,0.6,0.2,1.2,0.2,1.8c0,0.9-0.2,1.8-0.5,2.5c-0.3,0.7-0.8,1.4-1.3,1.9c-0.6,0.6-1.3,0.9-2,1.2
			c-0.7,0.3-1.7,0.4-2.6,0.4c-0.9,0-1.8-0.1-2.6-0.4c-0.8-0.3-1.5-0.7-2-1.2c-0.6-0.5-1-1.1-1.3-1.8c-0.3-0.7-0.5-1.6-0.5-2.5
			c0-0.6,0.1-1.2,0.2-1.8c0.2-0.6,0.4-1.1,0.8-1.6c0.4-0.5,0.7-0.9,1.3-1.2c0.5-0.4,1.1-0.6,1.7-0.7l0,0c-0.5-0.1-1-0.4-1.3-0.7
			c-0.4-0.3-0.7-0.7-1-1.1c-0.3-0.4-0.5-0.9-0.7-1.4C31.6,38.6,31.6,38.1,31.6,37.6z M32.7,47.6c0,0.6,0.1,1.2,0.3,1.8
			c0.2,0.6,0.5,1,0.9,1.4c0.4,0.4,0.9,0.7,1.4,1c0.6,0.2,1.2,0.4,1.8,0.4s1.3-0.1,1.8-0.4s1-0.6,1.4-1c0.4-0.4,0.7-0.9,0.9-1.4
			c0.2-0.5,0.3-1.1,0.3-1.8c0-0.7-0.1-1.3-0.4-1.8c-0.2-0.6-0.6-1-1-1.4c-0.4-0.4-0.9-0.7-1.4-0.9c-0.6-0.2-1.1-0.3-1.8-0.3
			c-0.7,0-1.2,0.1-1.8,0.3c-0.6,0.2-1,0.6-1.4,0.9c-0.4,0.4-0.7,0.9-1,1.4C32.8,46.3,32.7,46.9,32.7,47.6z M33.5,37.6
			c0,0.6,0.1,1,0.3,1.5c0.2,0.5,0.4,0.9,0.7,1.2c0.3,0.4,0.7,0.6,1.2,0.8c0.5,0.2,1,0.3,1.5,0.3s1-0.1,1.5-0.3
			c0.5-0.2,0.9-0.5,1.2-0.8c0.3-0.4,0.6-0.7,0.7-1.2c0.2-0.4,0.3-1,0.3-1.5c0-1.2-0.4-2.1-1-2.8c-0.7-0.7-1.6-1-2.7-1s-2,0.4-2.7,1
			C33.8,35.6,33.5,36.5,33.5,37.6z"/>
	</g>
	<path class="st0" d="M10.6,14.7V7c0-0.5,0.4-0.9,0.9-0.9h1.8c0.6,0,1,0.4,1,0.9v7.7"/>
	<path class="st0" d="M44.9,14.7V7c0-0.5,0.4-0.9,0.9-0.9h1.8c0.6,0,1,0.4,1,0.9v7.7"/>
</g>
<g id="News">
</g>
</svg>
