<?xml version="1.0" encoding="utf-8"?>
<!-- Generator: Adobe Illustrator 21.1.0, SVG Export Plug-In . SVG Version: 6.00 Build 0)  -->
<svg version="1.1" id="Layer_1" xmlns="http://www.w3.org/2000/svg" xmlns:xlink="http://www.w3.org/1999/xlink" x="0px" y="0px"
	 viewBox="0 0 42.5 14.2" style="enable-background:new 0 0 42.5 14.2;" xml:space="preserve">
<style type="text/css">
	.st0{fill:#3B97D3;}
	.st1{fill:#2C3E50;}
</style>
<path class="st0" d="M12.1,4.6c0-0.5-0.5-0.9-1.1-0.9H1.4C0.8,3.6,0.3,4,0.3,4.6v4.6c0,0.5,0.5,0.9,1.1,0.9h9.7
	c0.6,0,1.1-0.4,1.1-0.9V4.6z M11.7,9.2c0,0.3-0.3,0.6-0.6,0.6H1.4C1,9.7,0.7,9.5,0.7,9.2V4.6C0.7,4.2,1,4,1.4,4h9.7
	c0.4,0,0.6,0.3,0.6,0.6V9.2z"/>
<path class="st0" d="M2.6,4.3c0-0.1,0-0.2,0-0.2H2.3c0,0,0,0.1,0,0.2c0,0.6-0.5,1.1-1.2,1.1c-0.1,0-0.2,0-0.2,0v0.2c0,0,0.1,0,0.2,0
	C1.9,5.6,2.6,5.1,2.6,4.3z"/>
<path class="st0" d="M1.1,8C1.1,8,0.9,8,0.9,8v0.2c0,0,0.1,0,0.2,0c0.7,0,1.2,0.5,1.2,1.1c0,0.1,0,0.1,0,0.2h0.2c0-0.1,0-0.2,0-0.2
	C2.6,8.6,1.9,8,1.1,8z"/>
<path class="st0" d="M11.1,5.4c-0.7,0-1.2-0.5-1.2-1.1c0-0.1,0-0.2,0-0.2H9.7c0,0,0,0.1,0,0.2c0,0.7,0.6,1.3,1.4,1.3
	c0.1,0,0.2,0,0.3,0V5.4C11.3,5.4,11.2,5.4,11.1,5.4z"/>
<path class="st0" d="M11.1,8.2c0.1,0,0.2,0,0.3,0V8c-0.1,0-0.2,0-0.3,0c-0.8,0-1.5,0.6-1.5,1.3c0,0.1,0,0.1,0,0.2h0.2
	c0-0.1,0-0.2,0-0.2C9.9,8.7,10.4,8.2,11.1,8.2z"/>
<path class="st1" d="M6.2,4.6c-1.4,0-2.5,1-2.5,2.2c0,1.2,1.1,2.2,2.5,2.2s2.5-1,2.5-2.2S7.6,4.6,6.2,4.6z M6.2,8.9
	C4.9,8.9,3.8,8,3.8,6.8s1-2.1,2.3-2.1s2.3,0.9,2.3,2.1S7.4,8.9,6.2,8.9z"/>
<path class="st0" d="M5.9,7.7c-0.1,0-0.3-0.1-0.4-0.1l0.1-0.3c0.1,0.1,0.3,0.1,0.4,0.1c0.2,0,0.3-0.1,0.3-0.2c0-0.1,0-0.1-0.1-0.2
	C6.3,7,6.1,6.9,6,6.9C5.9,6.8,5.7,6.8,5.7,6.7c-0.1,0-0.1-0.1-0.1-0.2s0-0.1,0-0.2c0-0.1,0-0.2,0.1-0.3S5.9,5.9,6,5.9V5.7h0.3v0.2
	c0.2,0,0.3,0,0.4,0.1L6.6,6.3C6.4,6.2,6.3,6.1,6.2,6.1C6.1,6.1,6,6.2,6,6.2c0,0-0.1,0.1-0.1,0.2c0,0.1,0.1,0.2,0.4,0.3
	c0.1,0.1,0.2,0.1,0.3,0.2c0.1,0,0.1,0.1,0.1,0.2c0,0.1,0,0.1,0,0.2c0,0.1,0,0.2-0.1,0.3C6.6,7.6,6.4,7.7,6.3,7.7V8H6L5.9,7.7
	L5.9,7.7z"/>
</svg>
