<?xml version="1.0" encoding="iso-8859-1"?>
<!-- Generator: Adobe Illustrator 19.0.0, SVG Export Plug-In . SVG Version: 6.00 Build 0)  -->
<svg version="1.1" id="Capa_1" xmlns="http://www.w3.org/2000/svg" xmlns:xlink="http://www.w3.org/1999/xlink" x="0px" y="0px"
	 viewBox="0 0 468.299 468.299" style="enable-background:new 0 0 468.299 468.299;" xml:space="preserve">
<g>
	<path style="fill:#EBF0F3;" d="M430.761,372.71l-138.124-53.952v22.077l130.642,51.029c5.289,2.066,11.251-0.547,13.317-5.837
		l0.001-0.003C438.662,380.737,436.049,374.776,430.761,372.71z"/>
	<path style="fill:#EBF0F3;" d="M457.23,178.612l-126.897,9.757v20.622l128.473-9.879c5.661-0.435,9.898-5.377,9.462-11.038
		C467.833,182.413,462.891,178.176,457.23,178.612z"/>
</g>
<path style="fill:#27A2DB;" d="M35.268,434.503c-4.25,0-8.509-1.505-11.921-4.564c-7.348-6.588-7.963-17.881-1.376-25.229
	l100.373-111.956c4.21-4.698,10.57-6.824,16.779-5.598l139.796,27.728l29.683-98.691l-31.544,26.288
	c-3.445,2.864-7.859,4.324-12.313,4.118l-131.26-6.436c-9.855-0.481-17.452-8.863-16.969-18.718
	c0.484-9.855,8.816-17.475,18.718-16.969l124.301,6.094l71.857-59.883c6.057-5.047,14.71-5.523,21.29-1.179
	c6.578,4.349,9.529,12.497,7.255,20.049L308.465,340.71c-2.649,8.813-11.53,14.165-20.585,12.38l-145.726-28.902L48.576,428.564
	C45.049,432.499,40.166,434.503,35.268,434.503z"/>
<circle style="fill:#2D93BA;" cx="331.245" cy="80.126" r="46.33"/>
<ellipse style="fill:#D5D6DB;" cx="77.605" cy="126.448" rx="77.599" ry="77.599"/>
<g>
</g>
<g>
</g>
<g>
</g>
<g>
</g>
<g>
</g>
<g>
</g>
<g>
</g>
<g>
</g>
<g>
</g>
<g>
</g>
<g>
</g>
<g>
</g>
<g>
</g>
<g>
</g>
<g>
</g>
</svg>
